<svg width="215" height="88" viewBox="0 0 215 88" fill="none" xmlns="http://www.w3.org/2000/svg">
<rect x="2.5" y="2.5" width="209.745" height="82.0745" rx="17.5" stroke="white" stroke-width="5"/>
<path d="M183.636 6.23222C182.737 6.36706 182.014 6.92818 181.616 7.68106L181.607 7.70162L181.593 7.72939C181.588 7.73783 181.583 7.74708 181.579 7.75716L179.654 11.5954C178.763 12.0563 178.012 12.7545 177.48 13.6157C177.318 13.6498 177.161 13.694 177.009 13.7483L176.998 13.6823C176.886 13.0042 176.417 12.4632 175.774 12.2626L175.323 12.0988C175.285 12.0871 175.244 12.0833 175.204 12.0876C175.164 12.0919 175.125 12.1042 175.089 12.1238C175.054 12.1434 175.023 12.1699 174.997 12.2019C174.972 12.2338 174.953 12.2706 174.941 12.31C174.93 12.3494 174.926 12.3908 174.93 12.4317C174.934 12.4726 174.947 12.5122 174.966 12.5484C174.985 12.5845 175.011 12.6164 175.043 12.6423C175.074 12.6682 175.11 12.6876 175.149 12.6992L175.593 12.8641C176.013 12.9951 176.32 13.3482 176.392 13.786L176.43 14.0159C175.774 14.3974 175.249 14.9752 174.926 15.6709C174.603 16.3667 174.499 17.1467 174.626 17.9052C174.955 19.8984 176.766 21.2695 178.711 21.0072C179.441 21.6003 180.307 21.9952 181.228 22.1548L181.247 22.2683C181.299 22.5827 181.227 22.9055 181.046 23.1647L180.719 23.6328C180.573 23.8417 180.621 24.1376 180.826 24.2863C180.933 24.3633 181.055 24.3868 181.17 24.3671C181.285 24.3474 181.393 24.2845 181.468 24.1765L181.795 23.7084C182.093 23.28 182.227 22.7555 182.171 22.2336C182.42 22.2326 182.668 22.2145 182.914 22.1794L185.228 21.7835C185.351 22.2657 185.632 22.6867 186.039 22.9822L186.499 23.3156C186.605 23.3925 186.727 23.416 186.842 23.3963C186.957 23.3766 187.065 23.3138 187.14 23.2057C187.286 22.9969 187.238 22.701 187.033 22.5522L186.573 22.2188C186.371 22.073 186.221 21.8657 186.142 21.6269L186.502 21.5653C186.906 21.4962 187.3 21.376 187.675 21.2074C187.787 21.4187 187.961 21.589 188.173 21.6944C188.384 21.7998 188.623 21.835 188.856 21.7951L189.746 21.6428C189.994 21.6004 190.164 21.3494 190.122 21.0966C190.081 20.8438 189.84 20.6694 189.592 20.7119L188.702 20.8642C188.658 20.8719 188.612 20.8646 188.572 20.8435C188.531 20.8224 188.499 20.7885 188.479 20.747C189.25 20.205 189.852 19.45 190.215 18.571L191.841 15.2409L192.353 15.0348C192.521 14.9616 192.479 14.7089 192.298 14.7019L191.749 14.6774L189.142 12.0717C188.419 11.2501 187.449 10.6953 186.384 10.4937C186.753 9.8925 186.884 9.1711 186.751 8.47507C186.472 7.0078 185.087 6.00865 183.636 6.23161M186.782 20.214C186.624 20.264 186.462 20.3031 186.299 20.331L184.783 20.5904L183.361 11.9714L184.877 11.712C185.042 11.6838 185.207 11.667 185.371 11.6616L186.782 20.214ZM189.427 17.3778L188.78 13.4611L190.5 15.1809L189.427 17.3778ZM179.365 19.9361C179.456 19.7665 179.489 19.5703 179.457 19.3796L178.717 14.8975C178.684 14.6971 178.585 14.5251 178.448 14.4009C178.892 13.628 179.559 13.0126 180.358 12.6381L181.732 20.9623C180.859 20.8745 180.032 20.5163 179.365 19.9361ZM177.413 18.0481C177.253 18.0756 177.088 18.037 176.955 17.9408C176.823 17.8446 176.733 17.6987 176.706 17.5352C176.679 17.3717 176.717 17.204 176.811 17.0689C176.906 16.9339 177.049 16.8426 177.21 16.8151C177.37 16.7876 177.535 16.8262 177.668 16.9224C177.8 17.0186 177.89 17.1645 177.917 17.328C177.944 17.4915 177.906 17.6593 177.811 17.7943C177.717 17.9294 177.574 18.0207 177.413 18.0481Z" fill="white"/>
<path d="M112.692 63.3342C113.488 62.8876 114.397 62.8889 115.162 63.2427L115.181 63.2535L115.209 63.2669C115.218 63.2706 115.227 63.2751 115.237 63.2803L119.049 65.15C120.032 64.9681 121.045 65.061 121.981 65.4189C122.13 65.3462 122.281 65.2846 122.434 65.2342L122.404 65.1749C122.09 64.566 122.142 63.8463 122.535 63.2904L122.796 62.8824C122.82 62.8493 122.85 62.8212 122.885 62.7999C122.919 62.7786 122.957 62.7644 122.997 62.7581C123.037 62.7519 123.078 62.7537 123.117 62.7634C123.156 62.7732 123.193 62.7908 123.226 62.8151C123.258 62.8394 123.286 62.87 123.307 62.9052C123.328 62.9403 123.342 62.9793 123.348 63.02C123.354 63.0606 123.352 63.1021 123.343 63.142C123.333 63.182 123.316 63.2196 123.292 63.2528L123.036 63.6578C122.78 64.0209 122.745 64.4914 122.947 64.8844L123.054 65.0909C123.803 64.9903 124.564 65.1267 125.235 65.4817C125.905 65.8367 126.452 66.3931 126.801 67.0754C127.724 68.865 127.096 71.0731 125.392 72.0622C125.163 72.9846 124.708 73.8327 124.07 74.5272L124.122 74.6291C124.268 74.9114 124.516 75.1245 124.814 75.2192L125.353 75.3902C125.594 75.4664 125.73 75.7321 125.656 75.9769C125.617 76.1035 125.534 76.1975 125.43 76.2527C125.327 76.3079 125.204 76.3243 125.079 76.2849L124.541 76.1139C124.049 75.9564 123.631 75.6212 123.365 75.1714C123.167 75.3236 122.959 75.4621 122.742 75.5858L120.665 76.6962C120.853 77.1561 120.879 77.6645 120.731 78.1507L120.563 78.6994C120.524 78.826 120.441 78.9199 120.337 78.9751C120.234 79.0304 120.111 79.0468 119.987 79.0074C119.746 78.9311 119.609 78.6654 119.684 78.4206L119.852 77.8719C119.926 77.6316 119.923 77.3737 119.843 77.1353L119.52 77.3081C119.157 77.502 118.772 77.649 118.374 77.7456C118.41 77.9828 118.373 78.2257 118.267 78.4402C118.161 78.6546 117.992 78.8299 117.783 78.9414L116.984 79.3685C116.761 79.4877 116.476 79.3927 116.359 79.1658C116.242 78.9388 116.33 78.6518 116.553 78.5327L117.352 78.1056C117.392 78.0842 117.424 78.0502 117.444 78.0086C117.463 77.967 117.469 77.9201 117.46 77.875C116.524 77.9181 115.596 77.6881 114.785 77.212L111.512 75.5629L110.982 75.714C110.805 75.7595 110.688 75.5325 110.828 75.415L111.251 75.057L111.778 71.3765C111.866 70.2765 112.308 69.237 113.037 68.42C112.386 68.1688 111.852 67.6754 111.545 67.0395C110.895 65.6991 111.404 64.0502 112.692 63.3336M118.494 76.4048C118.65 76.347 118.802 76.2786 118.949 76.2L120.31 75.4724L116.321 67.7338L114.96 68.4614C114.812 68.5406 114.671 68.6288 114.537 68.726L118.494 76.4048ZM114.704 75.7762L112.891 72.2596L112.544 74.6882L114.704 75.7762ZM124.235 71.6126C124.061 71.5339 123.919 71.3977 123.831 71.2262L121.757 67.2019C121.664 67.022 121.641 66.8242 121.676 66.6406C120.863 66.2992 119.966 66.2203 119.108 66.4145L122.96 73.8885C123.603 73.2803 124.048 72.4861 124.235 71.6126ZM124.667 68.9068C124.811 68.8298 124.919 68.6976 124.968 68.5393C125.016 68.381 125.001 68.2096 124.925 68.0627C124.85 67.9159 124.72 67.8057 124.564 67.7564C124.409 67.7071 124.241 67.7227 124.096 67.7997C123.952 67.8768 123.844 68.009 123.796 68.1673C123.747 68.3256 123.762 68.497 123.838 68.6438C123.914 68.7907 124.044 68.9008 124.199 68.9502C124.355 68.9995 124.523 68.9839 124.667 68.9068Z" fill="white"/>
<path d="M75.3364 37.5307C75.5864 37.8307 75.7614 38.0724 75.8614 38.2557C75.9614 38.4391 76.0114 38.6141 76.0114 38.7807C76.0114 38.9807 75.8781 39.2141 75.6114 39.4807C75.3614 39.7474 75.1114 39.8807 74.8614 39.8807C74.5281 39.8807 74.2614 39.8307 74.0614 39.7307C73.8614 39.6307 73.6947 39.4724 73.5614 39.2557C73.2947 38.8557 72.9697 38.5141 72.5864 38.2307C72.2031 37.9307 71.6031 37.7807 70.7864 37.7807C70.0864 37.7807 69.2864 37.9391 68.3864 38.2557C67.5031 38.5724 66.8697 38.9641 66.4864 39.4307C66.1531 39.8474 65.8614 40.4807 65.6114 41.3307C65.3781 42.1807 65.2614 43.0057 65.2614 43.8057C65.2614 44.7724 65.4698 45.6641 65.8864 46.4807C66.3197 47.2807 66.9364 47.9224 67.7364 48.4057C68.5531 48.8891 69.5281 49.1307 70.6614 49.1307C71.2781 49.1307 71.9114 49.0141 72.5614 48.7807C73.2281 48.5307 73.8031 48.1307 74.2864 47.5807L74.2614 47.5807C74.5614 47.2641 74.9364 47.1057 75.3864 47.1057C75.6531 47.1057 75.9031 47.2224 76.1364 47.4557C76.3864 47.6891 76.5114 47.9224 76.5114 48.1557C76.5114 48.4057 76.4697 48.6307 76.3864 48.8307C76.3197 49.0141 76.1864 49.2224 75.9864 49.4557C75.3031 50.2224 74.4947 50.7474 73.5614 51.0307C72.6281 51.3141 71.5114 51.4557 70.2114 51.4557C69.0614 51.4557 67.8947 51.1807 66.7114 50.6307C65.5448 50.0807 64.6448 49.4141 64.0114 48.6307C63.6781 48.1474 63.3531 47.4557 63.0364 46.5557C62.7364 45.6391 62.5864 44.8974 62.5864 44.3307C62.5864 42.8807 62.8031 41.5057 63.2364 40.2057C63.6864 38.8891 64.3531 37.8391 65.2364 37.0557C65.8197 36.5224 66.6614 36.1224 67.7614 35.8557C68.8614 35.589 69.8697 35.4557 70.7864 35.4557C71.9031 35.4557 72.7781 35.614 73.4114 35.9307C74.0614 36.2307 74.7031 36.764 75.3364 37.5307ZM83.2258 37.6057C83.1758 38.6724 83.1508 39.6974 83.1508 40.6807C83.1508 41.6974 83.2175 43.1891 83.3508 45.1557C83.3675 45.4557 83.4008 46.0641 83.4508 46.9807C83.5008 47.8807 83.5258 48.7057 83.5258 49.4557C83.6925 49.4391 83.8675 49.4141 84.0508 49.3807C84.2508 49.3474 84.4008 49.3307 84.5008 49.3307C84.8675 49.3307 85.1592 49.4224 85.3758 49.6057C85.5925 49.7891 85.7008 50.0724 85.7008 50.4557C85.7008 50.7057 85.6008 50.8974 85.4008 51.0307C85.2008 51.1641 84.8508 51.2641 84.3508 51.3307C83.8675 51.3807 83.1592 51.4057 82.2258 51.4057C81.1925 51.4057 80.4175 51.3724 79.9008 51.3057C79.3842 51.2391 79.0258 51.1141 78.8258 50.9307C78.6258 50.7307 78.5258 50.4391 78.5258 50.0557C78.5258 49.7724 78.6175 49.5807 78.8008 49.4807C78.9842 49.3807 79.2425 49.3307 79.5758 49.3307L80.1008 49.3557L80.9258 49.4057L80.8008 46.4557C80.7008 44.8557 80.6508 43.3891 80.6508 42.0557C80.6508 41.3391 80.6758 40.3557 80.7258 39.1057L80.7758 37.7307C80.2092 37.7641 79.7675 37.7807 79.4508 37.7807C79.0842 37.7807 78.8342 37.7141 78.7008 37.5807C78.5842 37.4474 78.5258 37.1724 78.5258 36.7557C78.5258 36.289 78.8425 35.989 79.4758 35.8557C80.1258 35.7224 81.1092 35.6557 82.4258 35.6557C83.4425 35.6557 84.2008 35.689 84.7008 35.7557C85.2175 35.8224 85.4758 35.9724 85.4758 36.2057C85.4758 36.7724 85.3508 37.1474 85.1008 37.3307C84.8675 37.4974 84.4092 37.5807 83.7258 37.5807L83.2258 37.6057ZM99.927 51.0307C99.7103 50.7474 99.527 50.4391 99.377 50.1057C99.227 49.7557 99.0686 49.3391 98.902 48.8557C98.8686 48.7724 98.7686 48.5224 98.602 48.1057C98.452 47.6891 98.277 47.3307 98.077 47.0307C97.027 47.1807 96.1686 47.2557 95.502 47.2557C95.1353 47.2557 94.727 47.2474 94.277 47.2307C93.8436 47.1974 93.5186 47.1807 93.302 47.1807C92.4687 47.1141 91.802 47.0807 91.302 47.0807C91.102 47.3474 90.927 47.6307 90.777 47.9307C90.6437 48.2307 90.4687 48.6807 90.252 49.2807C89.952 50.1474 89.6937 50.7641 89.477 51.1307C89.327 51.3807 89.0353 51.5057 88.602 51.5057C88.2353 51.5057 87.8937 51.4307 87.577 51.2807C87.277 51.1141 87.127 50.8891 87.127 50.6057C87.2603 49.9724 87.4687 49.3057 87.752 48.6057C88.052 47.8891 88.477 46.9391 89.027 45.7557L90.027 43.3057C90.577 41.9057 91.077 40.7057 91.527 39.7057C91.9937 38.7057 92.602 37.5224 93.352 36.1557C93.452 35.9557 93.6186 35.789 93.852 35.6557C94.0853 35.5057 94.3436 35.4307 94.627 35.4307C94.9436 35.4307 95.1686 35.4557 95.302 35.5057C95.452 35.539 95.5686 35.6057 95.652 35.7057C95.7353 35.789 95.8603 35.9724 96.027 36.2557C96.5936 37.139 97.077 38.0474 97.477 38.9807C97.8936 39.9141 98.4186 41.2057 99.052 42.8557L99.577 44.1807C100.044 45.3807 100.444 46.3891 100.777 47.2057C101.127 48.0057 101.51 48.7391 101.927 49.4057C102.194 49.8391 102.327 50.1391 102.327 50.3057C102.327 50.7057 102.202 51.0141 101.952 51.2307C101.719 51.4307 101.41 51.5307 101.027 51.5307C100.544 51.5307 100.177 51.3641 99.927 51.0307ZM97.352 44.9807C97.0853 44.4141 96.702 43.4307 96.202 42.0307C95.6853 40.5307 95.1686 39.3391 94.652 38.4557C94.3353 39.2557 93.8686 40.2891 93.252 41.5557C92.8353 42.3391 92.3603 43.4724 91.827 44.9557C92.8936 45.0891 94.0436 45.1557 95.277 45.1557C96.1603 45.1557 96.852 45.0974 97.352 44.9807ZM110.358 50.2307C110.358 49.6807 110.392 49.0724 110.458 48.4057C110.525 47.6391 110.558 46.6724 110.558 45.5057C110.558 43.3724 110.467 41.3141 110.283 39.3307C110.183 38.0974 110.133 37.2224 110.133 36.7057C110.133 36.3557 110.308 36.064 110.658 35.8307C111.008 35.5807 111.367 35.4557 111.733 35.4557C111.967 35.4557 112.25 35.4724 112.583 35.5057C112.917 35.539 113.158 35.5557 113.308 35.5557C117.058 35.5557 119.817 36.564 121.583 38.5807C122.7 39.8807 123.258 41.6057 123.258 43.7557C123.258 44.6557 123.092 45.5641 122.758 46.4807C122.442 47.3807 121.983 48.1141 121.383 48.6807C120.733 49.3141 120.117 49.8224 119.533 50.2057C118.967 50.5724 118.192 50.8807 117.208 51.1307C116.242 51.3807 115 51.5057 113.483 51.5057C112.517 51.5057 111.75 51.3974 111.183 51.1807C110.633 50.9641 110.358 50.6474 110.358 50.2307ZM114.433 49.2307C115.55 49.2307 116.575 49.0307 117.508 48.6307C118.442 48.2141 119.192 47.5974 119.758 46.7807C120.325 45.9474 120.608 44.9307 120.608 43.7307C120.608 42.5474 120.442 41.5641 120.108 40.7807C119.775 39.9807 119.2 39.3307 118.383 38.8307C117.767 38.4474 117.008 38.1724 116.108 38.0057C115.208 37.8224 114.125 37.7307 112.858 37.7307C112.858 37.8974 112.875 38.2807 112.908 38.8807C112.942 39.4474 112.958 39.9224 112.958 40.3057L112.983 40.8557C113.083 42.5891 113.133 43.9641 113.133 44.9807C113.133 46.5807 113.042 47.9641 112.858 49.1307C113.258 49.1974 113.783 49.2307 114.433 49.2307ZM133.254 35.5057C134.32 35.5057 135.237 35.639 136.004 35.9057C136.787 36.1724 137.479 36.5807 138.079 37.1307C139.129 38.0807 139.862 39.1224 140.279 40.2557C140.712 41.3724 140.929 42.8057 140.929 44.5557C140.929 44.9891 140.87 45.3974 140.754 45.7807C140.637 46.1474 140.462 46.5974 140.229 47.1307L139.904 47.9307C139.67 48.5641 139.187 49.1557 138.454 49.7057C137.72 50.2391 136.895 50.6641 135.979 50.9807C135.062 51.2974 134.229 51.4557 133.479 51.4557C131.945 51.4557 130.604 51.2057 129.454 50.7057C128.32 50.1891 127.379 49.3807 126.629 48.2807C126.245 47.6974 125.945 47.0474 125.729 46.3307C125.512 45.5974 125.404 44.8974 125.404 44.2307C125.404 42.5307 125.704 41.0557 126.304 39.8057C126.92 38.5391 127.77 37.5557 128.854 36.8557C129.47 36.489 130.204 36.1724 131.054 35.9057C131.92 35.639 132.654 35.5057 133.254 35.5057ZM128.054 44.2307C128.054 45.0974 128.262 45.9057 128.679 46.6557C129.112 47.3891 129.687 47.9724 130.404 48.4057C131.137 48.8391 131.937 49.0557 132.804 49.0557C134.587 49.0557 135.945 48.6057 136.879 47.7057C137.829 46.8057 138.304 45.5391 138.304 43.9057C138.304 42.6391 138.162 41.6391 137.879 40.9057C137.595 40.1724 137.087 39.5141 136.354 38.9307C135.954 38.5974 135.52 38.3641 135.054 38.2307C134.604 38.0807 134.07 38.0057 133.454 38.0057C132.387 38.0057 131.445 38.2724 130.629 38.8057C129.812 39.3391 129.179 40.0807 128.729 41.0307C128.279 41.9807 128.054 43.0474 128.054 44.2307ZM163.961 35.6057C164.194 35.6057 164.477 35.764 164.811 36.0807C165.161 36.3807 165.336 36.639 165.336 36.8557C165.336 37.8724 165.302 39.2641 165.236 41.0307C165.219 41.4641 165.202 41.9891 165.186 42.6057C165.169 43.2057 165.161 43.9057 165.161 44.7057C165.161 46.0391 165.177 47.1641 165.211 48.0807C165.261 48.9807 165.361 49.7224 165.511 50.3057C165.494 50.7057 165.336 50.9974 165.036 51.1807C164.736 51.3474 164.427 51.4307 164.111 51.4307C163.461 51.4307 163.044 51.2057 162.861 50.7557C162.694 50.3057 162.611 49.6307 162.611 48.7307C162.611 45.0641 162.652 42.1057 162.736 39.8557C162.352 40.2724 161.986 40.7474 161.636 41.2807C161.286 41.8141 160.852 42.5141 160.336 43.3807C159.669 44.4974 159.127 45.3474 158.711 45.9307C158.494 46.1974 158.302 46.3807 158.136 46.4807C157.969 46.5807 157.719 46.6307 157.386 46.6307C156.969 46.6307 156.644 46.5307 156.411 46.3307C156.194 46.1307 155.936 45.8057 155.636 45.3557C155.203 44.7057 154.519 43.5807 153.586 41.9807L152.261 39.8057C152.261 42.5391 152.311 44.7807 152.411 46.5307C152.494 47.6141 152.536 48.7557 152.536 49.9557C152.536 50.3557 152.428 50.6974 152.211 50.9807C152.011 51.2474 151.703 51.3807 151.286 51.3807C150.836 51.3807 150.478 51.2974 150.211 51.1307C149.961 50.9641 149.828 50.7141 149.811 50.3807C149.828 50.0974 149.836 49.6307 149.836 48.9807C149.836 46.7974 149.803 44.7641 149.736 42.8807L149.686 41.1307C149.669 40.6141 149.653 40.0141 149.636 39.3307C149.619 38.6307 149.611 37.8724 149.611 37.0557C149.611 36.0557 150.153 35.5557 151.236 35.5557C151.569 35.5557 151.903 35.639 152.236 35.8057C152.586 35.9724 152.844 36.214 153.011 36.5307C153.294 37.1307 153.961 38.2807 155.011 39.9807C156.061 41.6641 156.844 42.8891 157.361 43.6557C157.711 43.2057 158.027 42.7391 158.311 42.2557C158.611 41.7724 158.861 41.3557 159.061 41.0057C159.677 40.0057 160.344 39.0641 161.061 38.1807C161.611 37.5141 162.061 36.8974 162.411 36.3307C162.577 36.1307 162.794 35.964 163.061 35.8307C163.344 35.6807 163.644 35.6057 163.961 35.6057ZM179.368 48.0057C179.684 48.0057 179.918 48.1307 180.068 48.3807C180.234 48.6141 180.318 48.8724 180.318 49.1557C180.318 49.5057 180.259 49.7557 180.143 49.9057C180.043 50.0391 179.843 50.1807 179.543 50.3307C178.843 50.6641 177.976 50.9307 176.943 51.1307C175.909 51.3307 174.801 51.4307 173.618 51.4307C172.134 51.4307 171.043 51.1807 170.343 50.6807C169.659 50.1807 169.234 49.5807 169.068 48.8807C168.918 48.1641 168.843 47.2307 168.843 46.0807C168.843 44.8474 168.893 43.6391 168.993 42.4557C169.093 41.2557 169.268 39.7307 169.518 37.8807C169.634 37.0807 169.951 36.5057 170.468 36.1557C170.984 35.789 171.551 35.6057 172.168 35.6057C172.684 35.6057 173.526 35.589 174.693 35.5557L176.868 35.5307C177.768 35.5307 178.418 35.5557 178.818 35.6057C179.318 35.7057 179.684 35.8224 179.918 35.9557C180.168 36.0724 180.293 36.2807 180.293 36.5807C180.293 36.914 180.176 37.239 179.943 37.5557C179.726 37.8724 179.393 38.0307 178.943 38.0307C178.426 38.0307 177.684 37.9974 176.718 37.9307C175.751 37.8641 175.026 37.8307 174.543 37.8307C174.126 37.8307 173.718 37.8557 173.318 37.9057C172.851 37.9391 172.518 37.9974 172.318 38.0807C172.118 38.1641 172.001 38.3057 171.968 38.5057C171.734 40.2224 171.618 41.4891 171.618 42.3057C172.001 42.3557 172.376 42.3807 172.743 42.3807C173.209 42.3807 173.709 42.3557 174.243 42.3057C174.776 42.2557 175.118 42.2224 175.268 42.2057C176.151 42.1224 176.909 42.0807 177.543 42.0807C177.909 42.0807 178.184 42.1474 178.368 42.2807C178.568 42.4141 178.668 42.5974 178.668 42.8307C178.668 43.1974 178.568 43.4807 178.368 43.6807C178.184 43.8807 177.851 44.0307 177.368 44.1307C176.784 44.2474 176.059 44.3391 175.193 44.4057C174.343 44.4724 173.509 44.5057 172.693 44.5057C172.409 44.5057 172.018 44.4891 171.518 44.4557C171.468 45.4724 171.443 46.4141 171.443 47.2807C171.443 48.4641 172.226 49.0557 173.793 49.0557C174.626 49.0557 175.318 48.9974 175.868 48.8807C176.418 48.7641 177.051 48.5974 177.768 48.3807C178.434 48.1307 178.968 48.0057 179.368 48.0057ZM184.187 35.5307C184.503 35.5307 184.787 35.614 185.037 35.7807C185.303 35.9474 185.462 36.239 185.512 36.6557C185.712 37.9724 185.837 39.2891 185.887 40.6057C185.953 41.9057 185.987 43.3807 185.987 45.0307C185.987 45.7307 185.928 47.0057 185.812 48.8557C186.545 48.9224 187.112 48.9557 187.512 48.9557C187.795 48.9557 188.437 48.9141 189.437 48.8307C190.02 48.7474 190.528 48.7057 190.962 48.7057C191.362 48.7057 191.728 48.7474 192.062 48.8307C192.395 48.8974 192.737 49.0141 193.087 49.1807C193.437 49.3807 193.612 49.6891 193.612 50.1057C193.612 50.4391 193.503 50.7391 193.287 51.0057C193.087 51.2724 192.845 51.4057 192.562 51.4057C192.362 51.4057 192.045 51.3724 191.612 51.3057C190.828 51.1891 190.078 51.1307 189.362 51.1307C189.128 51.1307 188.862 51.1474 188.562 51.1807C188.278 51.1974 188.07 51.2057 187.937 51.2057C187.537 51.2557 187.137 51.2807 186.737 51.2807C185.92 51.2807 185.187 51.2391 184.537 51.1557C184.203 51.1224 183.87 50.9974 183.537 50.7807C183.203 50.5474 183.037 50.2141 183.037 49.7807C183.037 49.5307 183.07 48.8891 183.137 47.8557C183.253 46.1391 183.312 44.8307 183.312 43.9307C183.312 43.2307 183.278 42.4974 183.212 41.7307C183.145 40.9641 183.103 40.4807 183.087 40.2807C182.937 38.8641 182.862 37.6974 182.862 36.7807C182.862 36.3474 182.962 36.0307 183.162 35.8307C183.378 35.6307 183.72 35.5307 184.187 35.5307Z" fill="white"/>
<path d="M41.382 32.9718L46.0883 24.9859L41.382 17H32.0216L27.3153 24.9859L32.0216 32.9718H41.382ZM32.0216 35.6338L27.3153 43.6197L32.0216 51.6057H41.382L46.0883 43.6197L41.382 35.6338H32.0216ZM48.3369 42.3154H57.7235L62.4036 34.3294L57.7235 26.3435H48.3369L43.6306 34.3294L48.3369 42.3154ZM57.7235 44.9773H48.3369L43.6306 52.9633L48.3369 60.9492H57.7235L62.4036 52.9633L57.7235 44.9773ZM25.0667 42.3154L29.773 34.3294L25.0667 26.3435H15.6802L11 34.3294L15.6802 42.3154H25.0667ZM25.0667 44.9773H15.6802L11 52.9633L15.6802 60.9492H25.0667L29.773 52.9633L25.0667 44.9773ZM32.0216 54.2676L27.3153 62.2536L32.0216 70.2395H41.382L46.0883 62.2536L41.382 54.2676H32.0216Z" stroke="white" stroke-width="2"/>
</svg>
